<svg xmlns="http://www.w3.org/2000/svg" width="256" height="256" viewBox="0 0 256 256">
  <path fill="#5D8009" fill-rule="evenodd" d="M128,0 C198.692448,0 256,57.307552 256,128 C256,198.692448 198.692448,256 128,256 C57.307552,256 0,198.692448 0,128 C0,57.307552 57.307552,0 128,0 Z M128,8 C61.72583,8 8,61.72583 8,128 C8,194.27417 61.72583,248 128,248 C194.27417,248 248,194.27417 248,128 C248,61.72583 194.27417,8 128,8 Z M194.656412,153.645404 C195.804747,153.645404 196.73551,154.597696 196.73551,155.772594 L196.73551,155.772594 L196.73551,182.197369 C195.319317,182.471085 193.932375,182.800285 192.577313,183.180597 C182.607436,185.982664 174.411332,191.617062 170.072701,198.915282 C172.890625,198.265625 175.806819,197.938779 178.787429,197.938779 C188.231936,197.938779 196.681735,201.250555 202.242763,206.43093 C182.890364,224.760081 156.757794,236 128,236 C95.6987324,236 66.7094952,221.819513 46.9180225,199.344272 C46.5261822,198.678998 46.8849767,198.314471 47.9829483,198.103662 L47.9829483,198.103662 L48.0123718,198.094641 C49.1789133,197.990818 50.3577465,197.938779 51.5466791,197.938779 C64.3637319,197.938779 75.3465374,204.035872 79.7666754,212.625 C84.1868134,204.035872 95.1692903,197.938779 107.986014,197.938779 C110.966296,197.938779 113.881504,198.265625 116.700085,198.915282 C112.361455,191.617062 104.165679,185.982664 94.195473,183.180597 C92.8407397,182.800285 91.4528117,182.471085 90.0376051,182.197369 L90.0376051,182.197369 L90.0376051,155.772594 C90.0376051,154.597696 90.9680394,153.645404 92.1167034,153.645404 C93.2650387,153.645404 94.195473,154.597696 94.195473,155.772594 L94.195473,155.772594 L94.195473,178.798437 C102.612107,180.991535 109.981633,185.05929 115.310514,190.417281 C124.292442,191.652706 133.85051,192.486971 143.386886,192.486971 C152.925563,192.486971 162.483631,191.651697 171.466216,190.414927 C176.79444,185.056936 184.162651,180.991535 192.577313,178.798437 L192.577313,178.798437 L192.577313,155.772594 C192.577313,154.597696 193.508076,153.645404 194.656412,153.645404 Z M128,20 C147.998669,20 166.727765,25.435684 182.790454,34.9102165 C183.268716,35.2532935 183.822792,35.6171594 184.370147,35.9845063 L184.370147,35.9845063 L184.608802,36.1452854 C184.727675,36.2257254 184.845684,36.3061957 184.962018,36.3864922 L184.962018,36.3864922 L185.192211,36.5467928 C187.277422,38.0129815 188.617371,39.375 184.204765,39.375 C183.911341,39.375 183.647963,39.3867784 183.415658,39.4095182 C182.892754,39.3865845 182.367025,39.375 181.838702,39.375 C161.782601,39.375 158.222235,49.5502733 145.465985,67.9938808 C144.802422,68.9525624 144.535222,70.1207349 143.386886,70.1207349 C142.238222,70.1207349 141.981539,68.9451646 141.307459,67.9938808 C128.934754,50.522069 124.990843,39.375 104.934413,39.375 C84.8783125,39.375 68.5610389,56.0693752 68.5610389,76.5893975 L68.5610389,76.5893975 L68.5610389,182.401143 C67.53858,182.61904 66.5292675,182.86014 65.5393459,183.133521 C57.8225224,185.268709 51.1527218,189.091801 46.4929945,194.073696 L46.4929945,194.073696 L46.54,194.024 L46.4039671,194.166859 C44.8914916,195.671294 43.5108757,195.009587 42.3319211,193.768582 C41.6315686,192.862594 40.9473557,191.942915 40.2775906,191.012145 C40.1203198,190.770943 39.9686101,190.548223 39.8254499,190.350329 C39.7848295,190.294179 39.744614,190.245513 39.7048033,190.204333 C27.2910698,172.620392 20,151.161656 20,128 C20,68.353247 68.353247,20 128,20 Z M234.260966,108.592322 L234.219299,108.594803 C230.475184,108.789856 226.431632,110.242834 222.369944,112.695813 L222.369944,112.695813 L222.369145,180.561223 C221.900709,181.400461 221.421402,182.232804 220.931415,183.058063 C220.035694,182.814452 219.132115,182.590112 218.211748,182.39509 L218.211748,182.39509 L218.211748,76.5893975 C218.211748,73.1506034 217.753505,69.8192483 216.896215,66.6558969 C225.441273,79.0113391 231.474583,93.236289 234.260966,108.592322 Z M51.6945758,108.572575 C50.0604821,108.572575 48.516441,108.835868 47.1048496,109.355055 C35.3687571,113.672989 34.3275647,135.097219 44.8311851,156.137438 C49.6010165,165.691636 56.0493106,173.872206 62.8239634,179.522744 C63.3458742,179.38555 63.8723863,179.254408 64.4028423,179.129991 L64.4028423,179.129991 L64.4028423,112.689424 L63.9342509,112.410866 C59.7179731,109.944266 55.5337617,108.572575 51.6945758,108.572575 Z M200.755364,109.375 C201.788008,109.375 202.625,110.23562 202.625,111.297416 C202.625,112.359212 201.788008,113.219833 200.755364,113.219833 C197.097368,113.219833 192.421504,117.190476 187.005884,121.788047 C183.268787,124.961028 180.139358,128.5137 177.078993,132.009721 L177.078993,132.009721 L176.39983,132.785504 L175.721627,133.558359 C175.633004,133.659119 175.544371,133.759777 175.455717,133.860322 L174.923417,134.462151 L174.923417,134.462151 L174.389951,135.060755 C166.999338,143.316778 159.092029,150.5 143.125591,150.5 C122.582647,150.5 109.093841,130.150528 99.2447068,121.788047 C93.829087,117.190476 89.1532236,113.219833 85.4946361,113.219833 C84.4622872,113.219833 83.625,112.359212 83.625,111.297416 C83.625,110.23562 84.4622872,109.375 85.4946361,109.375 C90.4970799,109.375 95.4081995,113.544692 101.625641,118.823588 C111.560779,127.259306 123.927095,137.758142 143.125591,137.758142 C162.324088,137.758142 174.689221,127.259306 184.62495,118.823588 C190.842096,113.544692 195.753807,109.375 200.755364,109.375 Z M104.934413,55.4930229 C116.304051,55.4930229 125.553836,64.9567669 125.553836,76.5893975 C125.553836,88.2220282 116.304051,97.6854358 104.934413,97.6854358 C93.5647759,97.6854358 84.3149905,88.2220282 84.3149905,76.5893975 C84.3149905,64.9567669 93.5647759,55.4930229 104.934413,55.4930229 Z M181.838702,55.4930229 C193.208339,55.4930229 202.457796,64.9567669 202.457796,76.5893975 C202.457796,88.2220282 193.208339,97.6854358 181.838702,97.6854358 C170.469064,97.6854358 161.219607,88.2220282 161.219607,76.5893975 C161.219607,64.9567669 170.469064,55.4930229 181.838702,55.4930229 Z M104.934413,60.5892294 C96.112325,60.5892294 88.9344134,67.7668189 88.9344134,76.5890218 C88.9344134,85.4112247 96.112325,92.5892294 104.934413,92.5892294 C113.756917,92.5892294 120.934413,85.4112247 120.934413,76.5890218 C120.934413,67.7668189 113.756917,60.5892294 104.934413,60.5892294 Z M181.838745,60.5892294 C173.016728,60.5892294 165.838537,67.7668189 165.838537,76.5890218 C165.838537,85.4112247 173.016728,92.5892294 181.838745,92.5892294 C190.661177,92.5892294 197.838537,85.4112247 197.838537,76.5890218 C197.838537,67.7668189 190.661177,60.5892294 181.838745,60.5892294 Z M104.934612,70.5892294 C108.247763,70.5892294 110.934413,73.2758795 110.934413,76.5890309 C110.934413,79.9025793 108.247763,82.5892294 104.934612,82.5892294 C101.621064,82.5892294 98.9344134,79.9025793 98.9344134,76.5890309 C98.9344134,73.2758795 101.621064,70.5892294 104.934612,70.5892294 Z M181.838537,70.5892294 C185.151579,70.5892294 187.838537,73.2758795 187.838537,76.5890309 C187.838537,79.9025793 185.151579,82.5892294 181.838537,82.5892294 C178.525099,82.5892294 175.838537,79.9025793 175.838537,76.5890309 C175.838537,73.2758795 178.525099,70.5892294 181.838537,70.5892294 Z"/>
</svg>
